<svg width="49" height="66" viewBox="0 0 49 66" fill="none" xmlns="http://www.w3.org/2000/svg">
<path fill-rule="evenodd" clip-rule="evenodd" d="M27.8065 17.1678C28.2756 12.4483 30.3952 3.33278 37.1185 6.14357C41.3964 7.93273 45.1088 13.3958 44.1739 18.1357C43.0018 24.0761 36.2024 24.1232 31.5754 22.8055C30.2432 22.4266 28.9368 21.9367 27.6537 21.371C27.6254 19.9686 27.6677 18.565 27.8065 17.1678ZM0.313715 0.594631C6.16002 9.57396 14.5827 17.9122 24.3208 22.9022C24.4989 25.3638 24.8539 27.6823 25.26 29.6189C27.6201 40.8694 34.0138 52.6467 42.4069 60.553C43.3244 61.4167 44.6653 60.6897 44.9326 59.6891C44.8492 60.2617 44.7586 60.8334 44.661 61.4042C43.183 61.0898 41.8014 60.5536 40.447 59.7587C39.6195 59.2726 38.8814 58.5194 38.0313 58.1053C37.525 57.8586 37.2458 58.1472 36.7307 57.8032C36.5664 57.6934 36.3018 57.8161 36.3846 58.0379C36.612 58.6449 36.377 59.1395 36.6298 59.7371C37.0278 60.6787 38.4221 61.7839 39.2025 62.3653C41.146 63.8133 43.4144 64.6854 45.7816 65.1332C46.7704 65.3199 47.5818 64.6326 47.828 63.7184C48.432 61.4775 48.718 59.1506 48.8504 56.8373C48.9647 54.833 49.2241 52.5634 48.4684 50.6721C47.8766 49.1889 45.7854 49.3472 45.4226 50.9039C44.9796 52.8034 45.3598 54.8745 45.2434 56.8256C45.1936 57.662 45.0966 58.4876 44.9835 59.3106C44.9773 59.0451 44.8925 58.7728 44.7001 58.5144C38.482 50.1656 32.3479 42.3982 29.3698 32.2048C28.6373 29.7015 28.117 27.1244 27.8488 24.5235C28.0697 24.6149 28.2887 24.7168 28.5118 24.8057C35.8531 27.7119 47.4591 27.1536 47.5241 16.7437C47.5713 9.35493 38.7698 -1.35713 30.7965 3.42318C25.7021 6.47726 24.2019 13.191 24.2029 19.6478C21.2452 18.0052 18.4301 16.0516 15.7648 14.1577C10.208 10.2107 5.18995 5.44668 0.673758 0.352786C0.494513 0.150966 0.156284 0.353218 0.313715 0.594631Z" fill="black"/>
</svg>
