<svg width="53" height="58" viewBox="0 0 53 58" fill="none" xmlns="http://www.w3.org/2000/svg">
<path d="M4.42066 56.2423C4.39447 56.6995 4.59487 57.1405 4.9566 57.4215C5.31833 57.7025 5.79512 57.7876 6.23173 57.6491L22.69 52.4293C22.965 52.3421 23.2062 52.1716 23.3801 51.9413L50.109 16.554C50.4034 16.1643 50.472 15.6488 50.2899 15.1956C48.5431 10.8488 45.1928 7.65924 41.6357 5.60194C38.0983 3.55594 34.2123 2.54655 31.2356 2.70255C30.8091 2.7249 30.4165 2.94171 30.1705 3.29075L5.67378 38.0381C5.52389 38.2508 5.43655 38.5011 5.42168 38.7608L4.42066 56.2423Z" fill="#B3B3B3"/>
<path d="M3.31715 35.804C3.2422 35.9103 3.19853 36.0355 3.1911 36.1654L2.19008 53.6468C2.17698 53.8755 2.27718 54.0959 2.45804 54.2364C2.63891 54.3769 2.8773 54.4195 3.09561 54.3502L19.5538 49.1305C19.6914 49.0868 19.812 49.0016 19.8989 48.8864L46.6278 13.4992C46.775 13.3043 46.8093 13.0466 46.7183 12.82C45.0432 8.65159 41.8195 5.56934 38.3615 3.56935C34.9134 1.57501 31.16 0.615092 28.3464 0.762548C28.1332 0.773723 27.9369 0.88213 27.8138 1.05665L3.31715 35.804Z" fill="white" stroke="black" stroke-width="1.39241" stroke-linejoin="round"/>
<path d="M28.3831 1.45778L3.88638 36.2052C6.98667 36.6091 14.4185 39.627 19.3436 48.4668L46.0725 13.0796C42.8657 5.09959 33.6843 1.17995 28.3831 1.45778Z" fill="#FF5757"/>
<path d="M18.7328 48.8009C18.8461 49.0082 19.057 49.1439 19.2926 49.1612C19.5283 49.1785 19.7567 49.0751 19.8991 48.8865L42.2712 19.2674C42.4249 19.0639 42.4551 18.7927 42.3499 18.5605C41.4162 16.4993 39.4082 13.4676 36.3874 10.9747C33.3574 8.47441 29.2798 6.49466 24.2339 6.62232C24.0138 6.62789 23.8093 6.73722 23.6825 6.91715L3.31738 35.8041C3.17758 36.0024 3.1511 36.2592 3.24748 36.4818C3.34386 36.7045 3.5492 36.8609 3.78946 36.8947C6.7493 37.3108 14.0658 40.2658 18.7328 48.8009Z" fill="#F8D044" stroke="black" stroke-width="1.39241" stroke-linejoin="round"/>
<path d="M3.38565 44.9461L2.88514 53.6868L11.1143 51.0769C8.41097 47.3842 4.83548 45.4511 3.38565 44.9461Z" fill="black"/>
<path d="M17.5219 46.1224L40.4562 15.6506" stroke="black" stroke-width="1.39241" stroke-linecap="round" stroke-linejoin="round"/>
<path d="M9.98769 39.5453L31.4798 8.26689" stroke="black" stroke-width="1.39241" stroke-linecap="round" stroke-linejoin="round"/>
</svg>
