<svg width="71" height="61" viewBox="0 0 71 61" fill="none" xmlns="http://www.w3.org/2000/svg">
<path d="M64.6132 39.5709L65.218 40.06C65.3564 39.8889 65.4158 39.6671 65.3816 39.4497L64.6132 39.5709ZM64.6132 39.5709C65.218 40.06 65.2178 40.0603 65.2175 40.0606L65.2166 40.0617L65.2139 40.0651L65.2044 40.0767L65.1696 40.119C65.1393 40.1555 65.095 40.2085 65.0369 40.2767C64.9209 40.4131 64.7501 40.6103 64.527 40.8583C64.0808 41.3541 63.4253 42.0533 62.5811 42.8752C60.8941 44.5176 58.4467 46.6565 55.4051 48.6394C49.3324 52.5983 40.7991 55.9912 31.2075 53.4211C21.6159 50.8511 15.9222 43.6461 12.6426 37.1812C10.9999 33.9431 9.94982 30.8671 9.31004 28.6013C8.9899 27.4674 8.77182 26.5341 8.63337 25.8816C8.56413 25.5553 8.51477 25.2991 8.48248 25.123C8.46633 25.0349 8.45446 24.9669 8.4465 24.9201L8.43745 24.866L8.43505 24.8512L8.43436 24.8469L8.43414 24.8456C8.43407 24.8451 8.43401 24.8448 9.20236 24.7236M64.6132 39.5709C65.3816 39.4497 65.3815 39.4494 65.3814 39.4489L65.3812 39.4475L65.3805 39.4433L65.3781 39.4285L65.3691 39.3744C65.3611 39.3276 65.3492 39.2595 65.3331 39.1715C65.3008 38.9954 65.2514 38.7391 65.1822 38.4129C65.0437 37.7604 64.8257 36.827 64.5055 35.6932C63.8658 33.4273 62.8157 30.3513 61.173 27.1133C57.8934 20.6484 52.1997 13.4434 42.6081 10.8734C33.0165 8.30331 24.4831 11.6962 18.4104 15.6551C15.3689 17.638 12.9215 19.7769 11.2344 21.4193C10.3903 22.2411 9.73474 22.9404 9.28862 23.4362C9.06551 23.6842 8.89465 23.8814 8.77863 24.0178C8.72062 24.0859 8.6763 24.1389 8.64601 24.1755L8.61114 24.2178L8.60166 24.2294L8.59892 24.2328L8.59806 24.2338C8.59777 24.2342 8.59753 24.2345 9.20236 24.7236M9.20236 24.7236L8.43401 24.8448C8.39973 24.6274 8.45915 24.4056 8.59753 24.2345L9.20236 24.7236Z" fill="#B3B3B3" stroke="#B3B3B3" stroke-width="1.55568" stroke-linejoin="round"/>
<path d="M62.2084 35.4069L62.8132 35.896C62.9516 35.7249 63.011 35.5032 62.9767 35.2858L62.2084 35.4069ZM62.2084 35.4069C62.8132 35.896 62.813 35.8963 62.8127 35.8967L62.8118 35.8978L62.8091 35.9011L62.7996 35.9127L62.7647 35.9551C62.7344 35.9916 62.6901 36.0446 62.6321 36.1128C62.5161 36.2492 62.3452 36.4464 62.1221 36.6943C61.676 37.1901 61.0204 37.8894 60.1763 38.7113C58.4893 40.3537 56.0419 42.4925 53.0003 44.4754C46.9276 48.4344 38.3942 51.8272 28.8026 49.2572C19.211 46.6871 13.5174 39.4821 10.2377 33.0172C8.59506 29.7792 7.54498 26.7032 6.90519 24.4373C6.58505 23.3035 6.36698 22.3701 6.22853 21.7177C6.15929 21.3914 6.10992 21.1352 6.07763 20.9591C6.06149 20.871 6.04961 20.8029 6.04165 20.7562L6.0326 20.7021L6.0302 20.6873L6.02951 20.683L6.0293 20.6816C6.02923 20.6812 6.02917 20.6808 6.79751 20.5597M62.2084 35.4069C62.9767 35.2858 62.9767 35.2854 62.9766 35.285L62.9764 35.2836L62.9757 35.2793L62.9733 35.2645L62.9642 35.2104C62.9563 35.1637 62.9444 35.0956 62.9282 35.0075C62.896 34.8314 62.8466 34.5752 62.7774 34.2489C62.6389 33.5965 62.4208 32.6631 62.1007 31.5293C61.4609 29.2634 60.4108 26.1874 58.7682 22.9494C55.4885 16.4845 49.7948 9.27948 40.2033 6.70942C30.6117 4.13937 22.0783 7.53224 16.0056 11.4912C12.964 13.4741 10.5166 15.6129 8.8296 17.2553C7.98544 18.0772 7.3299 18.7765 6.88377 19.2723C6.66066 19.5202 6.4898 19.7174 6.37378 19.8538C6.31577 19.922 6.27146 19.975 6.24117 20.0115L6.20629 20.0539L6.19681 20.0655L6.19408 20.0688L6.19321 20.0699C6.19292 20.0703 6.19268 20.0706 6.79751 20.5597M6.79751 20.5597L6.02917 20.6808C5.99489 20.4634 6.0543 20.2417 6.19268 20.0706L6.79751 20.5597Z" fill="#44E2F8" stroke="black" stroke-width="1.55568" stroke-linejoin="round"/>
<path d="M31.1891 41.6023C38.3578 43.2038 45.4712 38.13 47.1867 30.4511C48.9021 22.7722 44.6242 15.1536 37.4556 13.5521C30.2869 11.9506 23.1735 17.0244 21.458 24.7033C19.7426 32.3823 24.0205 40.0009 31.1891 41.6023Z" fill="white" stroke="black" stroke-width="1.55568" stroke-linecap="round" stroke-linejoin="round"/>
<path d="M32.4831 35.4052C37.0574 36.4271 41.5796 33.4368 42.6193 28.7828C43.659 24.1289 40.8392 19.4984 36.265 18.4765C31.6908 17.4546 27.1685 20.4449 26.1288 25.0989C25.0891 29.7528 27.9089 34.3833 32.4831 35.4052Z" fill="#FC75FF" stroke="black" stroke-width="1.55568" stroke-linecap="round" stroke-linejoin="round"/>
<ellipse cx="34.0585" cy="26.1995" rx="3.81325" ry="3.92484" transform="rotate(12.5931 34.0585 26.1995)" fill="black"/>
</svg>
