<svg width="68" height="67" viewBox="0 0 68 67" fill="none" xmlns="http://www.w3.org/2000/svg">
<path d="M36.9494 59.383C37.1612 59.9456 37.7295 60.2912 38.3265 60.2205C38.9235 60.1497 39.3953 59.6809 39.4697 59.0843C40.2655 52.7063 45.6029 38.208 60.4512 31.7446C61.0188 31.4976 61.3352 30.8862 61.2092 30.2801C61.0832 29.674 60.5493 29.2395 59.9302 29.2391C52.5399 29.2348 46.4866 25.8134 41.8772 21.4349C37.2577 17.0468 34.1735 11.7721 32.7644 8.29809C32.541 7.74735 31.9742 7.41664 31.3848 7.49319C30.7955 7.56974 30.3319 8.03426 30.2566 8.62379C27.9796 26.4534 15.3138 34.2494 9.44117 35.9078C8.82634 36.0814 8.42711 36.6741 8.49721 37.3091C8.56731 37.9441 9.08618 38.4354 9.72409 38.4707C16.2673 38.8332 30.9814 43.5309 36.9494 59.383Z" fill="#B3B3B3"/>
<path d="M56.9725 29.3248C57.2563 29.2013 57.4146 28.8956 57.3516 28.5926C57.2886 28.2895 57.0216 28.0722 56.7121 28.0721C49.1057 28.0677 42.8995 24.5434 38.2094 20.0882C33.5141 15.6281 30.3806 10.2723 28.941 6.72315C28.8293 6.44778 28.5459 6.28243 28.2512 6.3207C27.9565 6.35898 27.7248 6.59124 27.6871 6.88601C25.3704 25.0265 12.4725 33.0016 6.401 34.7162C6.09359 34.803 5.89397 35.0993 5.92902 35.4168C5.96407 35.7343 6.22351 35.98 6.54246 35.9976C13.2499 36.3692 28.2549 41.1602 34.3433 57.3322C34.4492 57.6135 34.7333 57.7863 35.0318 57.7509C35.3303 57.7155 35.5662 57.4811 35.6034 57.1828C36.4171 50.6619 41.8435 35.9104 56.9725 29.3248Z" fill="#FC75FF" stroke="black" stroke-width="1.30707" stroke-linejoin="round"/>
<path d="M42.6302 30.9443C36.1356 34.9156 33.6874 41.9019 33.0039 45.1433C30.8366 40.9969 25.2771 34.4003 20.3448 33.7335C22.3099 33.0755 27.3092 27.0547 29.6562 19.6218C33.907 27.1239 39.9426 30.2201 42.6302 30.9443Z" fill="white" stroke="black" stroke-width="1.30707" stroke-linecap="round" stroke-linejoin="round"/>
</svg>
